<svg xmlns="http://www.w3.org/2000/svg" version="1.1" xmlns:xlink="http://www.w3.org/1999/xlink" xmlns:svgjs="http://svgjs.dev/svgjs" width="1000" height="755" viewBox="0 0 1000 755"><g transform="matrix(1,0,0,1,-0.02798694176698291,0.3062324688046374)"><svg viewBox="0 0 327 247" data-background-color="#ffffff" preserveAspectRatio="xMidYMid meet" height="755" width="1000" xmlns="http://www.w3.org/2000/svg" xmlns:xlink="http://www.w3.org/1999/xlink"><g id="tight-bounds" transform="matrix(1,0,0,1,0.00915172995780722,-0.09997365579206985)"><svg viewBox="0 0 326.9816965400844 247.2" height="247.2" width="326.9816965400844"><g><svg viewBox="0 0 326.9816965400844 247.2" height="247.2" width="326.9816965400844"><g><svg viewBox="0 0 326.9816965400844 247.2" height="247.2" width="326.9816965400844"><g id="textblocktransform"><svg viewBox="0 0 326.9816965400844 247.2" height="247.2" width="326.9816965400844" id="textblock"><g><svg viewBox="0 0 326.9816965400844 247.2" height="247.2" width="326.9816965400844"><path d="M326.216 53.02C324.679 27.36 320.298 20.227 320.298 20.227 306.847-6.202 290.061-0.506 274.981 3.292 248.356 3.446 221.84 9.091 195.277 12.119 139.522 12.581 83.291 4.986 27.813 23.717 22.602 29.464-5.406 24.846 0.927 56.304 2.587 69.39 8.644 83.913 8.459 95.922 9.289 98.026 10.442 93.202 10.934 96.23 12.656 104.39 15.469 100.541 17.775 105.365 14.562 118.246 16.868 128.971 19.066 140.21 15.192 143.135 10.227 141.749 7.998 151.449 7.768 158.479 6.522 157.145 5.154 156.837 4.155 156.632 2.141 157.402 2.48 159.608 3.632 167.152-1.317 171.514 1.788 178.904-0.349 186.91 3.263 193.838 2.772 202.511 2.71 204.255 3.048 205.744 3.586 206.154 5.969 208.361 2.495 212.672 2.864 217.342 27.305 249.262 53.822 227.195 78.864 241.872 85.366 231.608 80.478 245.516 83.075 243.36 85.105 240.846 86.58 251.263 88.871 245.362 89.224 243.668 88.686 239.665 89.947 240.435 90.608 240.846 91.192 240.743 91.284 238.382 91.423 234.841 90.208 237.048 89.885 235.201 93.375 225.861 92.514 248.081 95.788 247.158 95.634 244.438 94.681 240.538 96.634 241.051 98.571 237.151 98.632 233.918 100.354 242.693 100.415 244.592 100.723 245.926 101.215 246.85 106.595 237.305 111.944 250.237 117.586 245.926 121.045 241.205 124.365 248.492 127.87 246.696 129.1 245.259 130.345 242.693 131.528 247.004 146.024 247.928 161.473 244.079 175.216 247.158 211.94 241.41 251.185 249.518 289.907 241.923 299.038 238.998 308.523 234.841 317.423 231.506 317.423 231.506 324.633 222.371 324.633 181.316S326.17 145.393 326.401 112.703C326.631 80.013 327.707 78.679 326.17 53.02Z" opacity="1" fill="#fce44d" data-fill-palette-color="tertiary"></path><g transform="matrix(1,0,0,1,55.76832,26.230666666666668)"><svg width="215.44505654008438" viewBox="1.7000000476837158 -38.849998474121094 43.689998626708984 39.5" height="194.73866666666666" data-palette-color="#ffffff"><path d="M7.55 0.65Q6.6 0.65 6.6-0.45L6.6-0.45 6.6-1.05Q6.65-1.25 6.65-1.55L6.65-1.55 6.65-1.8 5.75-7.85Q5.4-9.75 5.3-10.6L5.3-10.6Q4.85-14.1 4.35-18.4L4.35-18.4Q3.95-21.8 2.95-29.6L2.95-29.6 2.8-30.75Q2.05-36.4 1.7-36.95L1.7-36.95Q1.85-37.2 2.15-37.4 2.45-37.6 2.75-37.6L2.75-37.6Q3.5-37.6 3.78-37.35 4.05-37.1 4.05-36.45L4.05-36.45 4.05-36 4.05-35.5 4.05-34.95Q5.6-18.6 7.3-4.35L7.3-4.35 7.4-4.35Q7.55-5.8 8-12.3L8-12.3 8.1-13.75Q8.45-20.1 8.5-20.45L8.5-20.45Q8.65-21.95 9.1-24.85L9.1-24.85 9.7-28.9 9.85-31.2Q9.9-31.8 9.93-32.23 9.95-32.65 10-32.85L10-32.85 10.05-33.5Q10.05-33.55 10.13-33.65 10.2-33.75 10.35-33.85L10.35-33.85Q11.05-33.85 11.25-33.5L11.25-33.5Q11.4-33.35 11.45-33.18 11.5-33 11.5-32.75L11.5-32.75Q11.6-32.3 11.6-32.3L11.6-32.3Q12.1-29.65 13.75-18.5 15.4-7.35 15.75-3.8L15.75-3.8 15.9-3.7 17.75-23.95Q17.85-25.85 18.4-29.95L18.4-29.95Q18.9-34.1 18.9-36.7L18.9-36.7 18.85-37.2 18.85-37.65Q18.85-38.3 19.15-38.58 19.45-38.85 20.15-38.85L20.15-38.85Q20.45-38.85 20.78-38.6 21.1-38.35 21.1-38.05L21.1-38.05Q21.1-37.55 20.55-37.1L20.55-37.1Q20.6-37.05 20.6-36.8L20.6-36.8Q20.6-36.5 20.53-36.18 20.45-35.85 20.4-35.7L20.4-35.7Q19.85-31.2 19.05-22.45L19.05-22.45 18.05-12.1 17.65-8.15 17.05-3.1 16.8-0.55Q16.8 0.05 16.63 0.35 16.45 0.65 15.9 0.65L15.9 0.65Q15.1 0.65 14.95 0.05L14.95 0.05Q14.85-0.25 14.75-1.35L14.75-1.35 14.7-2.1Q13.5-9.8 11.1-29.5L11.1-29.5 10.95-29.6 10.9-29.55 10.9-29.5 8.4-2.2 8.4-1.3Q8.4 0.65 7.55 0.65L7.55 0.65ZM26.6 0.2Q26.15 0.2 25.82-0.18 25.5-0.55 25.5-1L25.5-1Q25.5-1.5 25.9-1.93 26.3-2.35 26.8-2.35L26.8-2.35Q27.2-2.35 27.6-1.93 28-1.5 28-1.05L28-1.05Q28 0.2 26.6 0.2L26.6 0.2ZM39.89 0.35Q37.59 0.35 36.49-0.2 35.39-0.75 34.87-2.33 34.34-3.9 33.95-7.35L33.95-7.35Q33.34-12.4 33.34-15.2L33.34-15.2Q33.34-16.9 33.55-19.1L33.55-19.1 33.84-22.25Q34.09-26 34.42-27.93 34.74-29.85 35.87-31.33 36.99-32.8 39.34-33.05L39.34-33.05Q39.59-33.1 40.14-33.1L40.14-33.1Q41.7-33.1 41.7-32.4L41.7-32.4Q41.7-32.1 41.37-31.88 41.05-31.65 40.7-31.65L40.7-31.65 40.2-31.7 39.74-31.75Q38.89-31.75 38.22-31.2 37.55-30.65 37.09-29.6L37.09-29.6Q36.05-27.1 35.74-24.7L35.74-24.7Q35.34-21.55 35.24-19.2L35.24-19.2 35.2-15.35Q35.2-12.9 35.34-11.7L35.34-11.7Q35.7-11.15 35.82-10.03 35.95-8.9 36.05-6.95L36.05-6.95Q36.14-5.2 36.49-3.98 36.84-2.75 37.74-1.95L37.74-1.95Q38.74-1.1 40.5-1.1L40.5-1.1Q41.95-1.1 42.55-2.7L42.55-2.7Q43.25-4.4 43.34-6.2L43.34-6.2Q43.5-8.45 43.5-10L43.5-10 43.5-12.75Q43-13.25 41.75-13.25L41.75-13.25 41.34-13.25Q41.09-13.2 40.8-13.2L40.8-13.2Q39.59-13.2 39.59-13.8L39.59-13.8Q39.59-14.65 40.8-14.65L40.8-14.65Q41.64-14.65 42.2-14.6L42.2-14.6 43.3-14.55Q44.25-14.4 44.8-14.2L44.8-14.2Q45.39-14 45.39-13.65L45.39-13.65Q45.39-13 45.09-11.8L45.09-11.8Q44.84-10.4 44.84-9.9L44.84-9.9Q44.84-7.8 44.95-6.1L44.95-6.1Q45-4.35 45-2.25L45-2.25Q42.45 0.35 39.89 0.35L39.89 0.35Z" opacity="1" transform="matrix(1,0,0,1,0,0)" fill="#ffffff" class="wordmark-text-0" data-fill-palette-color="quaternary" id="text-0"></path></svg></g></svg></g></svg></g></svg></g><g></g></svg></g><defs></defs></svg><rect width="326.9816965400844" height="247.2" fill="none" stroke="none" visibility="hidden"></rect></g></svg></g></svg>